<svg width="24" height="24" viewBox="0 0 24 24" fill="none" xmlns="http://www.w3.org/2000/svg">
<path d="M9.42187 0.75C8.71912 0.75 8.48437 0.90825 8.48437 1.6875V2.39025H6.37462C4.98937 2.39025 4.73438 2.646 4.73438 4.0305V21.609C4.73438 22.9942 4.99012 23.2493 6.37462 23.2493H17.6246C19.0099 23.2493 19.2649 22.9935 19.2649 21.609V4.0305C19.2649 2.64525 19.0091 2.39025 17.6246 2.39025H15.5149V1.6875C15.5149 0.909 15.2809 0.75 14.5774 0.75H9.42187ZM6.37462 5.67225C6.37462 3.79725 6.14062 4.032 8.01487 4.032C8.95237 4.032 15.2809 4.032 15.9836 4.032C17.8586 4.032 17.6239 3.798 17.6239 5.67225C17.6239 6.60975 17.6239 19.032 17.6239 19.9695C17.6239 21.8445 17.8579 21.6097 15.9836 21.6097C15.0461 21.6097 8.95237 21.6097 8.01487 21.6097C6.13988 21.6097 6.37462 21.8438 6.37462 19.9695C6.37462 19.0312 6.37462 6.60975 6.37462 5.67225ZM7.54612 8.9535H16.4524C16.7111 8.9535 16.9211 9.1635 16.9211 9.42225V12.0007C16.9211 12.2595 16.7111 12.4695 16.4524 12.4695H7.54612C7.28737 12.4695 7.07737 12.2595 7.07737 12.0007V9.42225C7.07737 9.1635 7.28737 8.9535 7.54612 8.9535ZM7.54612 13.1722H16.4524C16.7111 13.1722 16.9211 13.3822 16.9211 13.641V16.2195C16.9211 16.4782 16.7111 16.6882 16.4524 16.6882H7.54612C7.28737 16.6882 7.07737 16.4782 7.07737 16.2195V13.641C7.07737 13.3822 7.28737 13.1722 7.54612 13.1722ZM7.54612 17.391H16.4524C16.7111 17.391 16.9211 17.601 16.9211 17.8597V20.4382C16.9211 20.697 16.7111 20.907 16.4524 20.907H7.54612C7.28737 20.907 7.07737 20.697 7.07737 20.4382V17.8597C7.07737 17.601 7.28737 17.391 7.54612 17.391Z" fill="#4E4E4E"/>
</svg>
