<svg width="25" height="24" viewBox="0 0 25 24" fill="none" xmlns="http://www.w3.org/2000/svg">
<path fill-rule="evenodd" clip-rule="evenodd" d="M7.76729 1.25H16.8967C17.4666 1.24998 17.9506 1.24997 18.3505 1.29132C18.7763 1.33534 19.1698 1.43094 19.5416 1.66071C19.9134 1.89048 20.1749 2.19971 20.4047 2.56088C20.6205 2.9001 20.8369 3.33297 21.0918 3.8428L21.1083 3.87574C21.118 3.89518 21.1269 3.91504 21.1349 3.93526L22.5385 7.4834C22.7055 7.90559 22.8906 8.4323 22.9447 8.97128C23.0001 9.52258 22.9241 10.1541 22.4921 10.7019C22.1388 11.15 21.6475 11.4863 21.082 11.6463V21.25H22.332C22.7462 21.25 23.082 21.5858 23.082 22C23.082 22.4142 22.7462 22.75 22.332 22.75H2.33203C1.91782 22.75 1.58203 22.4142 1.58203 22C1.58203 21.5858 1.91782 21.25 2.33203 21.25H3.58203V11.6464C3.01649 11.4863 2.52515 11.15 2.17178 10.7019C1.73982 10.1541 1.66385 9.52257 1.71921 8.97127C1.77333 8.43229 1.95842 7.90559 2.12543 7.4834L3.52904 3.93526C3.53704 3.91504 3.54591 3.89518 3.55564 3.87574L3.57213 3.84275C3.82701 3.33295 4.04342 2.90009 4.25926 2.56088C4.48907 2.19971 4.75056 1.89048 5.12234 1.66071C5.49411 1.43094 5.88764 1.33534 6.31345 1.29132C6.71337 1.24997 7.19732 1.24998 7.76729 1.25ZM18.3319 10.8875C18.6679 11.2433 19.0978 11.5096 19.582 11.6465V21.25H15.582V18.4678C15.582 18.028 15.582 17.6486 15.5538 17.3374C15.524 17.0082 15.4579 16.6822 15.2806 16.375C15.0831 16.033 14.799 15.7489 14.457 15.5514C14.1498 15.3741 13.8238 15.308 13.4947 15.2782C13.1834 15.25 12.804 15.25 12.3642 15.25H12.2998C11.86 15.25 11.4806 15.25 11.1693 15.2782C10.8402 15.308 10.5142 15.3741 10.207 15.5514C9.86499 15.7489 9.58095 16.033 9.38347 16.375C9.2061 16.6822 9.14005 17.0082 9.11021 17.3374C9.082 17.6486 9.08201 18.028 9.08203 18.4677V21.25H5.08203V11.6465C5.56616 11.5095 5.99601 11.2433 6.33195 10.8875C6.83333 11.4186 7.54393 11.75 8.33194 11.75C9.11996 11.75 9.83056 11.4186 10.332 10.8875C10.8333 11.4186 11.5439 11.75 12.3319 11.75C13.1199 11.75 13.8305 11.4186 14.3319 10.8875C14.8333 11.4186 15.5439 11.75 16.3319 11.75C17.1199 11.75 17.8305 11.4186 18.3319 10.8875ZM10.582 21.25H14.082V18.5C14.082 18.0189 14.0813 17.7082 14.0599 17.4727C14.0395 17.2476 14.0051 17.1659 13.9815 17.125C13.9157 17.011 13.821 16.9163 13.707 16.8505C13.6661 16.8269 13.5844 16.7925 13.3593 16.7721C13.1238 16.7507 12.8131 16.75 12.332 16.75C11.8509 16.75 11.5402 16.7507 11.3047 16.7721C11.0796 16.7925 10.9979 16.8269 10.957 16.8505C10.843 16.9163 10.7483 17.011 10.6825 17.125C10.6589 17.1659 10.6245 17.2476 10.6041 17.4727C10.5827 17.7082 10.582 18.0189 10.582 18.5V21.25ZM7.08194 9C7.08194 9.69036 7.64159 10.25 8.33194 10.25C9.0223 10.25 9.58194 9.69036 9.58194 9C9.58194 8.58579 9.91773 8.25 10.3319 8.25C10.7461 8.25 11.0819 8.58579 11.0819 9C11.0819 9.69036 11.6416 10.25 12.3319 10.25C13.0223 10.25 13.5819 9.69036 13.5819 9C13.5819 8.58579 13.9177 8.25 14.3319 8.25C14.7461 8.25 15.0819 8.58579 15.0819 9C15.0819 9.69036 15.6416 10.25 16.3319 10.25C17.0223 10.25 17.5819 9.69036 17.5819 9C17.5819 8.58579 17.9177 8.25 18.3319 8.25C18.7461 8.25 19.0819 8.58579 19.0819 9C19.0819 9.69036 19.6416 10.25 20.3319 10.25C20.7299 10.25 21.0842 10.0649 21.3143 9.77305C21.4282 9.62859 21.4833 9.43094 21.4522 9.12114C21.4199 8.79903 21.301 8.43275 21.1437 8.03518L19.7521 4.51739C19.4844 3.98204 19.3055 3.62749 19.1391 3.36612C18.9792 3.1147 18.8645 3.00562 18.753 2.93669C18.6415 2.86776 18.4926 2.81401 18.1962 2.78336C17.8825 2.75093 17.4766 2.75 16.8598 2.75H7.80417C7.18736 2.75 6.78143 2.75093 6.46772 2.78336C6.1713 2.81401 6.02247 2.86776 5.91093 2.93669C5.7994 3.00562 5.68477 3.1147 5.52479 3.36612C5.35849 3.62749 5.17958 3.98204 4.91186 4.51739L3.52026 8.03518C3.36298 8.43275 3.24405 8.79903 3.2117 9.12115C3.18059 9.43095 3.23569 9.62861 3.34962 9.77307C3.57973 10.0649 3.93399 10.25 4.33194 10.25C5.0223 10.25 5.58194 9.69036 5.58194 9C5.58194 8.58579 5.91773 8.25 6.33194 8.25C6.74616 8.25 7.08194 8.58579 7.08194 9Z" fill="#797979"/>
</svg>
