<svg width="24" height="24" viewBox="0 0 24 24" fill="none" xmlns="http://www.w3.org/2000/svg">
<g clip-path="url(#clip0_86_4155)">
<path fill-rule="evenodd" clip-rule="evenodd" d="M6.60765 3.25026C5.76475 4.09316 5.7648 5.44973 5.76475 8.16299L5.76475 15.8371C5.76475 18.5504 5.76475 19.9069 6.60769 20.7498C7.45056 21.5927 8.80714 21.5928 11.5204 21.5927L12.4796 21.5927C15.1928 21.5927 16.5495 21.5927 17.3923 20.7498C18.2352 19.907 18.2352 18.5503 18.2352 15.8371L18.2353 8.163C18.2352 5.44974 18.2353 4.09318 17.3923 3.25026C16.5495 2.40737 15.1928 2.40737 12.4796 2.40737L11.5204 2.40737C8.80715 2.40737 7.45054 2.40737 6.60765 3.25026ZM14.3978 6.03559C14.812 6.03559 15.1478 5.69979 15.1478 5.28559C15.1478 4.87137 14.812 4.53559 14.3978 4.53559L9.60149 4.53558C9.18727 4.53559 8.85149 4.87137 8.85149 5.28558C8.85149 5.6998 9.18727 6.03559 9.60149 6.03558L14.3978 6.03559ZM11.9994 18.7154C12.7942 18.7154 13.4383 18.0712 13.4384 17.2765C13.4384 16.4818 12.7942 15.8376 11.9995 15.8376C11.2048 15.8376 10.5606 16.4818 10.5606 17.2765C10.5606 18.0712 11.2048 18.7154 11.9994 18.7154Z" fill="#4E4E4E"/>
</g>
<defs>
<clipPath id="clip0_86_4155">
<rect width="24" height="24" fill="white"/>
</clipPath>
</defs>
</svg>
