<svg width="24" height="24" viewBox="0 0 24 24" fill="none" xmlns="http://www.w3.org/2000/svg">
<path d="M21.4686 11.1849L20.4386 9.75494C20.2081 9.43115 19.9036 9.167 19.5506 8.98439C19.1976 8.80178 18.8061 8.70598 18.4086 8.70494H14.0286V6.56494C14.0286 5.9019 13.7652 5.26602 13.2964 4.79717C12.8275 4.32833 12.1916 4.06494 11.5286 4.06494H4.55859C3.89612 4.06679 3.26131 4.33077 2.79287 4.79921C2.32443 5.26766 2.06044 5.90247 2.05859 6.56494V16.5049C2.05859 16.9028 2.21663 17.2843 2.49793 17.5656C2.77924 17.8469 3.16077 18.0049 3.55859 18.0049H4.77859C4.8541 18.54 5.1203 19.0297 5.5282 19.3841C5.9361 19.7385 6.45826 19.9336 6.99859 19.9336C7.53893 19.9336 8.06109 19.7385 8.46899 19.3841C8.87689 19.0297 9.14308 18.54 9.21859 18.0049H14.7786C14.8541 18.54 15.1203 19.0297 15.5282 19.3841C15.9361 19.7385 16.4583 19.9336 16.9986 19.9336C17.5389 19.9336 18.0611 19.7385 18.469 19.3841C18.8769 19.0297 19.1431 18.54 19.2186 18.0049H20.4386C20.8364 18.0049 21.2179 17.8469 21.4993 17.5656C21.7806 17.2843 21.9386 16.9028 21.9386 16.5049V12.6349C21.9362 12.1146 21.7719 11.6078 21.4686 11.1849ZM6.99859 18.9349C6.75137 18.9349 6.50969 18.8616 6.30413 18.7243C6.09857 18.5869 5.93835 18.3917 5.84374 18.1633C5.74913 17.9349 5.72438 17.6836 5.77261 17.4411C5.82084 17.1986 5.93989 16.9759 6.11471 16.8011C6.28953 16.6262 6.51225 16.5072 6.75473 16.459C6.99721 16.4107 7.24854 16.4355 7.47695 16.5301C7.70536 16.6247 7.90058 16.7849 8.03793 16.9905C8.17528 17.196 8.24859 17.4377 8.24859 17.6849C8.24859 18.0165 8.1169 18.3344 7.88248 18.5688C7.64806 18.8032 7.33011 18.9349 6.99859 18.9349ZM13.0286 17.0049H9.14859C9.00299 16.5491 8.71625 16.1513 8.32979 15.869C7.94333 15.5867 7.47716 15.4346 6.99859 15.4346C6.52003 15.4346 6.05385 15.5867 5.6674 15.869C5.28094 16.1513 4.9942 16.5491 4.84859 17.0049H3.55859C3.42599 17.0049 3.29881 16.9523 3.20504 16.8585C3.11127 16.7647 3.05859 16.6375 3.05859 16.5049V6.56494C3.05859 6.16712 3.21663 5.78559 3.49793 5.50428C3.77924 5.22298 4.16077 5.06494 4.55859 5.06494H11.5286C11.9264 5.06494 12.308 5.22298 12.5893 5.50428C12.8706 5.78559 13.0286 6.16712 13.0286 6.56494V17.0049ZM16.9986 18.9349C16.7514 18.9349 16.5097 18.8616 16.3041 18.7243C16.0986 18.5869 15.9384 18.3917 15.8437 18.1633C15.7491 17.9349 15.7244 17.6836 15.7726 17.4411C15.8208 17.1986 15.9399 16.9759 16.1147 16.8011C16.2895 16.6262 16.5123 16.5072 16.7547 16.459C16.9972 16.4107 17.2485 16.4355 17.4769 16.5301C17.7054 16.6247 17.9006 16.7849 18.0379 16.9905C18.1753 17.196 18.2486 17.4377 18.2486 17.6849C18.2486 18.0165 18.1169 18.3344 17.8825 18.5688C17.6481 18.8032 17.3301 18.9349 16.9986 18.9349ZM20.9386 16.5049C20.9386 16.6375 20.8859 16.7647 20.7921 16.8585C20.6984 16.9523 20.5712 17.0049 20.4386 17.0049H19.1486C19.003 16.5491 18.7163 16.1513 18.3298 15.869C17.9433 15.5867 17.4772 15.4346 16.9986 15.4346C16.52 15.4346 16.0539 15.5867 15.6674 15.869C15.2809 16.1513 14.9942 16.5491 14.8486 17.0049H14.0286V9.70494H18.4086C18.6472 9.70654 18.882 9.76443 19.094 9.8739C19.306 9.98337 19.4892 10.1413 19.6286 10.3349L20.6586 11.7649C20.8386 12.0196 20.9363 12.3232 20.9386 12.6349V16.5049Z" fill="#797979"/>
<path d="M18.0273 12.2051H16.0273C15.8947 12.2051 15.7676 12.1524 15.6738 12.0586C15.58 11.9649 15.5273 11.8377 15.5273 11.7051C15.5273 11.5725 15.58 11.4453 15.6738 11.3515C15.7676 11.2578 15.8947 11.2051 16.0273 11.2051H18.0273C18.16 11.2051 18.2871 11.2578 18.3809 11.3515C18.4747 11.4453 18.5273 11.5725 18.5273 11.7051C18.5273 11.8377 18.4747 11.9649 18.3809 12.0586C18.2871 12.1524 18.16 12.2051 18.0273 12.2051Z" fill="#797979"/>
</svg>
