<svg width="102" height="93" viewBox="0 0 102 93" fill="none" xmlns="http://www.w3.org/2000/svg">
<circle cx="48" cy="45" r="40" fill="black"/>
<rect x="66.75" y="58.75" width="28.5" height="28.5" rx="14.25" fill="black"/>
<rect x="66.75" y="58.75" width="28.5" height="28.5" rx="14.25" stroke="white" stroke-width="1.5"/>
<path d="M77.2493 68.7226C77.0962 68.9524 77.1583 69.2628 77.388 69.416C77.6178 69.5692 77.9282 69.5071 78.0814 69.2774L77.2493 68.7226ZM78.6029 67.5937L79.0189 67.8711V67.8711L78.6029 67.5937ZM83.3945 67.5937L83.8105 67.3164L83.3945 67.5937ZM83.916 69.2774C84.0692 69.5071 84.3796 69.5692 84.6094 69.416C84.8391 69.2628 84.9012 68.9524 84.7481 68.7226L83.916 69.2774ZM82.4987 74C82.4987 74.8284 81.8271 75.5 80.9987 75.5V76.5C82.3794 76.5 83.4987 75.3807 83.4987 74H82.4987ZM80.9987 75.5C80.1703 75.5 79.4987 74.8284 79.4987 74H78.4987C78.4987 75.3807 79.618 76.5 80.9987 76.5V75.5ZM79.4987 74C79.4987 73.1716 80.1703 72.5 80.9987 72.5V71.5C79.618 71.5 78.4987 72.6193 78.4987 74H79.4987ZM80.9987 72.5C81.8271 72.5 82.4987 73.1716 82.4987 74H83.4987C83.4987 72.6193 82.3794 71.5 80.9987 71.5V72.5ZM78.0814 69.2774L79.0189 67.8711L78.1869 67.3164L77.2493 68.7226L78.0814 69.2774ZM79.7123 67.5H82.2851V66.5H79.7123V67.5ZM82.9785 67.8711L83.916 69.2774L84.7481 68.7226L83.8105 67.3164L82.9785 67.8711ZM82.2851 67.5C82.5637 67.5 82.8239 67.6393 82.9785 67.8711L83.8105 67.3164C83.4705 66.8064 82.8981 66.5 82.2851 66.5V67.5ZM79.0189 67.8711C79.1735 67.6393 79.4336 67.5 79.7123 67.5V66.5C79.0993 66.5 78.5269 66.8064 78.1869 67.3164L79.0189 67.8711ZM76.9987 69.5H84.9987V68.5H76.9987V69.5ZM87.1654 71.6667V76.3333H88.1654V71.6667H87.1654ZM84.9987 78.5H76.9987V79.5H84.9987V78.5ZM74.832 76.3333V71.6667H73.832V76.3333H74.832ZM76.9987 78.5C75.8021 78.5 74.832 77.53 74.832 76.3333H73.832C73.832 78.0822 75.2498 79.5 76.9987 79.5V78.5ZM87.1654 76.3333C87.1654 77.53 86.1953 78.5 84.9987 78.5V79.5C86.7476 79.5 88.1654 78.0822 88.1654 76.3333H87.1654ZM84.9987 69.5C86.1953 69.5 87.1654 70.47 87.1654 71.6667H88.1654C88.1654 69.9178 86.7476 68.5 84.9987 68.5V69.5ZM76.9987 68.5C75.2498 68.5 73.832 69.9178 73.832 71.6667H74.832C74.832 70.47 75.8021 69.5 76.9987 69.5V68.5Z" fill="#FEFEFE"/>
<g clip-path="url(#clip0_37_3345)">
<path d="M48.0003 44.7485C52.5871 44.7485 56.3054 40.9992 56.3054 36.3742C56.3054 31.7493 52.5871 28 48.0003 28C43.4136 28 39.6953 31.7493 39.6953 36.3742C39.6953 40.9992 43.4136 44.7485 48.0003 44.7485Z" fill="white"/>
<path d="M51.6729 48.8223H44.3287C39.4684 48.8223 35.5273 52.7951 35.5273 57.6977V69.9998H60.4743V57.6977C60.4743 52.7951 56.5332 48.8223 51.6729 48.8223Z" fill="white"/>
</g>
<defs>
<clipPath id="clip0_37_3345">
<rect width="42" height="33" fill="white" transform="translate(27 28)"/>
</clipPath>
</defs>
</svg>
