<svg width="120" height="40" viewBox="0 0 120 40" fill="none" xmlns="http://www.w3.org/2000/svg">
<rect x="0.444444" y="0.444444" width="119.111" height="39.1111" rx="7.55556" fill="black"/>
<rect x="0.444444" y="0.444444" width="119.111" height="39.1111" rx="7.55556" stroke="#A6A6A6" stroke-width="0.888889"/>
<path d="M17.5495 19.717L8.08594 29.7615C8.08629 29.7636 8.087 29.7653 8.08736 29.7674C8.37758 30.858 9.37376 31.6611 10.5561 31.6611C11.0287 31.6611 11.4724 31.5334 11.853 31.309L11.8832 31.2913L22.5356 25.1445L17.5495 19.717" fill="#EA4335"/>
<path d="M27.1252 18.0068L27.1161 18.0005L22.5172 15.3345L17.3359 19.945L22.5352 25.1436L27.1099 22.504C27.9119 22.071 28.4564 21.2255 28.4564 20.2505C28.4564 19.2825 27.9192 18.4412 27.1252 18.0068" fill="#FBBC04"/>
<path d="M8.08679 10.6978C8.0299 10.9076 8 11.1273 8 11.3555V29.1045C8 29.3322 8.02955 29.5527 8.08715 29.7617L17.8764 19.9742L8.08679 10.6978Z" fill="#4285F4"/>
<path d="M17.6196 20.2295L22.5179 15.3326L11.8776 9.16354C11.4908 8.93189 11.0394 8.7982 10.5564 8.7982C9.37412 8.7982 8.3766 9.60274 8.08629 10.6947C8.08594 10.6958 8.08594 10.6965 8.08594 10.6975L17.6196 20.2295Z" fill="#34A853"/>
<path d="M38.4345 13.7666C37.6375 13.7666 36.9521 13.4862 36.3994 12.9336C35.8465 12.3807 35.5664 11.6883 35.5664 10.8833C35.5664 10.0782 35.8466 9.38709 36.3994 8.83292C36.9521 8.28025 37.6375 7.99993 38.4345 7.99993C38.8405 7.99993 39.2194 8.07005 39.5815 8.21608C39.9438 8.36211 40.2401 8.56484 40.4735 8.83014L40.5286 8.89281L39.9069 9.51434L39.8447 9.43795C39.6899 9.24778 39.4931 9.10003 39.2437 8.99264C38.9951 8.88551 38.7229 8.83604 38.4345 8.83604C37.8732 8.83604 37.4074 9.02666 37.0185 9.41417C37.0184 9.41425 37.0182 9.41425 37.0181 9.41434C36.638 9.80967 36.447 10.291 36.447 10.8833C36.447 11.476 36.6383 11.9574 37.0188 12.3529C37.4077 12.7402 37.8735 12.9319 38.4345 12.9319C38.9483 12.9319 39.3733 12.7884 39.7074 12.5044H39.7075C40.0186 12.2402 40.2052 11.883 40.2713 11.4277H38.3456V10.6083H41.1036L41.1154 10.6833C41.138 10.8273 41.1539 10.9664 41.1539 11.0999C41.1539 11.8645 40.9208 12.4887 40.4635 12.9479C39.9472 13.4951 39.2682 13.7666 38.4345 13.7666L38.4345 13.7666ZM62.3827 13.7666C61.5846 13.7666 60.9071 13.486 60.3615 12.9336C60.3615 12.9336 60.3615 12.9335 60.3614 12.9334C60.3613 12.9334 60.3613 12.9333 60.3612 12.9333C59.8149 12.3868 59.5438 11.6943 59.5438 10.8833C59.5438 10.0722 59.8149 9.37974 60.3612 8.83325C60.3612 8.83319 60.3613 8.83317 60.3614 8.83308L60.3615 8.8329C60.9071 8.28037 61.5846 7.99991 62.3827 7.99991C63.1793 7.99991 63.857 8.28044 64.4025 8.84123C64.949 9.38763 65.2202 10.0788 65.2202 10.8832C65.2202 11.6943 64.9492 12.3868 64.4029 12.9332L64.4027 12.9334C63.8568 13.4863 63.1728 13.7666 62.3827 13.7666L62.3827 13.7666ZM41.9431 13.6472V8.11937H42.032H45.2445V8.95548H42.8084V10.4735H45.0056V11.293H42.8084V12.8124H45.2445V13.6472H41.9431ZM47.265 13.6472V8.95548H45.7706V8.11937H49.6247V8.95548H49.5359H48.1303V13.6472H47.265ZM52.0879 13.6472V8.11937H52.9532V8.20826V13.6472H52.0879ZM55.1313 13.6472V8.95548H53.6369V8.11937H57.4911V8.95548H57.4022H55.9966V13.6472H55.1313ZM65.9883 13.6472V8.11937H66.964L69.4471 12.0947L69.4258 11.34V8.11937H70.2911V13.6472H69.4348L66.8322 9.47094L66.8536 10.2251V10.2263V13.6472H65.9883ZM62.3827 12.9319C62.944 12.9319 63.4023 12.7404 63.7758 12.3536L63.7763 12.3529L63.7769 12.3523C64.1557 11.9734 64.3411 11.4856 64.3411 10.8832C64.3411 10.2824 64.1556 9.7929 63.7769 9.41414L63.7763 9.4136L63.7758 9.41307C63.4023 9.02629 62.9442 8.83599 62.3827 8.83599C61.8203 8.83599 61.3622 9.02596 60.9817 9.41272L60.9813 9.41308C60.6095 9.80104 60.4244 10.2825 60.4244 10.8832C60.4244 11.4854 60.6094 11.9653 60.9813 12.3534L60.9817 12.3537C61.3623 12.7405 61.8205 12.9318 62.3827 12.9318V12.9319Z" fill="white"/>
<path d="M94.1394 28.8357H95.798V17.7232H94.1394V28.8357ZM109.079 21.7264L107.178 26.5441H107.121L105.147 21.7264H103.361L106.321 28.4597L104.633 32.2055H106.362L110.923 21.7264H109.079ZM99.6718 27.5736C99.1296 27.5736 98.3714 27.3017 98.3714 26.6299C98.3714 25.7722 99.3154 25.4434 100.13 25.4434C100.858 25.4434 101.202 25.6003 101.645 25.8149C101.516 26.8444 100.63 27.5736 99.6718 27.5736V27.5736ZM99.8727 21.4833C98.6718 21.4833 97.4283 22.0124 96.9136 23.1847L98.3856 23.7993C98.7003 23.1847 99.2861 22.9847 99.9012 22.9847C100.759 22.9847 101.631 23.4989 101.645 24.4142V24.5284C101.345 24.3569 100.701 24.0996 99.9154 24.0996C98.3278 24.0996 96.7127 24.9715 96.7127 26.6013C96.7127 28.0882 98.014 29.0461 99.4718 29.0461C100.586 29.0461 101.202 28.5458 101.587 27.9594H101.645V28.8177H103.247V24.5569C103.247 22.584 101.773 21.4833 99.8727 21.4833V21.4833ZM89.622 23.0791H87.2629V19.2701H89.622C90.862 19.2701 91.5661 20.2965 91.5661 21.1746C91.5661 22.0357 90.862 23.0791 89.622 23.0791V23.0791ZM89.5794 17.7232H85.605V28.8357H87.2629V24.6257H89.5794C91.4176 24.6257 93.2247 23.2951 93.2247 21.1746C93.2247 19.0545 91.4176 17.7232 89.5794 17.7232ZM67.907 27.5756C66.7612 27.5756 65.8021 26.6159 65.8021 25.2989C65.8021 23.9667 66.7612 22.9933 67.907 22.9933C69.0383 22.9933 69.9261 23.9667 69.9261 25.2989C69.9261 26.6159 69.0383 27.5756 67.907 27.5756V27.5756ZM69.8116 22.3486H69.7542C69.382 21.9048 68.6657 21.5038 67.764 21.5038C65.8733 21.5038 64.1407 23.1652 64.1407 25.2989C64.1407 27.418 65.8733 29.0649 67.764 29.0649C68.6657 29.0649 69.382 28.6638 69.7542 28.2059H69.8116V28.7496C69.8116 30.1965 69.0383 30.9694 67.7924 30.9694C66.7761 30.9694 66.146 30.2392 65.8879 29.6236L64.4418 30.225C64.8567 31.227 65.9591 32.459 67.7924 32.459C69.7404 32.459 71.3872 31.3132 71.3872 28.5204V21.733H69.8116V22.3486ZM72.5331 28.8357H74.1935V17.7232H72.5331V28.8357ZM76.6425 25.1698C76.5997 23.709 77.7744 22.9645 78.6189 22.9645C79.2779 22.9645 79.8358 23.294 80.0227 23.7663L76.6425 25.1698ZM81.7977 23.9093C81.4828 23.0649 80.5234 21.5038 78.5615 21.5038C76.6136 21.5038 74.9956 23.0361 74.9956 25.2843C74.9956 27.4038 76.5997 29.0649 78.7473 29.0649C80.4799 29.0649 81.4828 28.0055 81.8983 27.3895L80.6094 26.5301C80.1796 27.1603 79.5928 27.5756 78.7473 27.5756C77.9028 27.5756 77.3012 27.1889 76.915 26.4299L81.9695 24.3392L81.7977 23.9093ZM41.5241 22.6638V24.2676H45.3619C45.2473 25.1698 44.9466 25.8284 44.4883 26.2867C43.9296 26.8451 43.056 27.4611 41.5241 27.4611C39.1612 27.4611 37.314 25.5565 37.314 23.1937C37.314 20.8308 39.1612 18.926 41.5241 18.926C42.7987 18.926 43.7293 19.4274 44.4167 20.0718L45.5484 18.9403C44.5886 18.0239 43.3143 17.3222 41.5241 17.3222C38.2872 17.3222 35.5664 19.9572 35.5664 23.1937C35.5664 26.4299 38.2872 29.0649 41.5241 29.0649C43.2709 29.0649 44.5886 28.492 45.6196 27.418C46.6793 26.3583 47.0088 24.8691 47.0088 23.6659C47.0088 23.294 46.9799 22.9503 46.9227 22.6638H41.5241ZM51.372 27.5756C50.2261 27.5756 49.238 26.6305 49.238 25.2843C49.238 23.9239 50.2261 22.9933 51.372 22.9933C52.5174 22.9933 53.5056 23.9239 53.5056 25.2843C53.5056 26.6305 52.5174 27.5756 51.372 27.5756V27.5756ZM51.372 21.5038C49.2806 21.5038 47.5768 23.0933 47.5768 25.2843C47.5768 27.4611 49.2806 29.0649 51.372 29.0649C53.4626 29.0649 55.1668 27.4611 55.1668 25.2843C55.1668 23.0933 53.4626 21.5038 51.372 21.5038ZM59.65 27.5756C58.505 27.5756 57.5164 26.6305 57.5164 25.2843C57.5164 23.9239 58.505 22.9933 59.65 22.9933C60.7959 22.9933 61.7837 23.9239 61.7837 25.2843C61.7837 26.6305 60.7959 27.5756 59.65 27.5756ZM59.65 21.5038C57.5595 21.5038 55.8557 23.0933 55.8557 25.2843C55.8557 27.4611 57.5595 29.0649 59.65 29.0649C61.7414 29.0649 63.4453 27.4611 63.4453 25.2843C63.4453 23.0933 61.7414 21.5038 59.65 21.5038Z" fill="white"/>
</svg>
