<svg width="64" height="65" viewBox="0 0 64 65" fill="none" xmlns="http://www.w3.org/2000/svg">
<rect x="0.5" y="0.677734" width="63" height="63" rx="26.5" fill="#EDECEE"/>
<rect x="0.5" y="0.677734" width="63" height="63" rx="26.5" stroke="#FEFEFE"/>
<path d="M41.984 30.1777C41.947 28.8667 41.823 28.0307 41.403 27.3177C40.805 26.3027 39.729 25.7377 37.578 24.6097L35.578 23.5597C33.822 22.6387 32.944 22.1777 32 22.1777C31.056 22.1777 30.178 22.6377 28.422 23.5597L26.422 24.6097C24.271 25.7377 23.195 26.3027 22.597 27.3177C22 28.3317 22 29.5947 22 32.1197V32.2367C22 34.7607 22 36.0237 22.597 37.0377C23.195 38.0527 24.271 38.6177 26.422 39.7467L28.422 40.7957C30.178 41.7167 31.056 42.1777 32 42.1777C32.944 42.1777 33.822 41.7177 35.578 40.7957L37.578 39.7457C39.729 38.6167 40.805 38.0527 41.403 37.0377C41.823 36.3247 41.947 35.4887 41.984 34.1777M41 27.6777L37 29.6777M37 29.6777L36.5 29.9277L32 32.1777M37 29.6777V33.1777M37 29.6777L27.5 24.6777M32 32.1777L23 27.6777M32 32.1777V41.6777" stroke="#212529" stroke-width="1.5" stroke-linecap="round"/>
</svg>
