<svg width="64" height="64" viewBox="0 0 64 64" fill="none" xmlns="http://www.w3.org/2000/svg">
<rect x="0.5" y="0.5" width="63" height="63" rx="26.5" fill="#EDECEE"/>
<rect x="0.5" y="0.5" width="63" height="63" rx="26.5" stroke="#FEFEFE"/>
<g clip-path="url(#clip0_37_4128)">
<path d="M32 38C31.4696 38 30.9609 37.7893 30.5858 37.4142C30.2107 37.0391 30 36.5304 30 36C30 34.89 30.89 34 32 34C32.5304 34 33.0391 34.2107 33.4142 34.5858C33.7893 34.9609 34 35.4696 34 36C34 36.5304 33.7893 37.0391 33.4142 37.4142C33.0391 37.7893 32.5304 38 32 38ZM38 41V31H26V41H38ZM38 29C38.5304 29 39.0391 29.2107 39.4142 29.5858C39.7893 29.9609 40 30.4696 40 31V41C40 41.5304 39.7893 42.0391 39.4142 42.4142C39.0391 42.7893 38.5304 43 38 43H26C25.4696 43 24.9609 42.7893 24.5858 42.4142C24.2107 42.0391 24 41.5304 24 41V31C24 29.89 24.89 29 26 29H27V27C27 25.6739 27.5268 24.4021 28.4645 23.4645C29.4021 22.5268 30.6739 22 32 22C32.6566 22 33.3068 22.1293 33.9134 22.3806C34.52 22.6319 35.0712 23.0002 35.5355 23.4645C35.9998 23.9288 36.3681 24.48 36.6194 25.0866C36.8707 25.6932 37 26.3434 37 27V29H38ZM32 24C31.2044 24 30.4413 24.3161 29.8787 24.8787C29.3161 25.4413 29 26.2044 29 27V29H35V27C35 26.2044 34.6839 25.4413 34.1213 24.8787C33.5587 24.3161 32.7956 24 32 24Z" fill="#212529"/>
</g>
<defs>
<clipPath id="clip0_37_4128">
<rect width="24" height="24" fill="white" transform="translate(21 20)"/>
</clipPath>
</defs>
</svg>
